<svg width="97" height="96" viewBox="0 0 97 96" fill="none" xmlns="http://www.w3.org/2000/svg">
<path d="M43.4199 5.42806C44.0309 4.66858 44.8045 4.05577 45.6836 3.63473C46.5628 3.21368 47.5251 2.99512 48.4999 2.99512C49.4747 2.99512 50.437 3.21368 51.3162 3.63473C52.1953 4.05577 52.9689 4.66858 53.5799 5.42806L59.6279 12.9521C60.3129 13.8057 61.2018 14.473 62.2127 14.8924C63.2236 15.3119 64.3238 15.47 65.4119 15.3521L75.0119 14.3081C75.9837 14.2001 76.9673 14.3121 77.89 14.6358C78.8126 14.9594 79.6507 15.4865 80.3421 16.1779C81.0335 16.8693 81.5605 17.7073 81.8842 18.63C82.2078 19.5526 82.3198 20.5363 82.2119 21.5081L81.1679 31.1081C81.05 32.1961 81.2081 33.2964 81.6275 34.3073C82.047 35.3182 82.7143 36.2071 83.5679 36.8921L91.0919 42.9401C91.8514 43.5511 92.4642 44.3246 92.8852 45.2038C93.3063 46.0829 93.5248 47.0453 93.5248 48.0201C93.5248 48.9948 93.3063 49.9572 92.8852 50.8363C92.4642 51.7155 91.8514 52.489 91.0919 53.1001L83.5439 59.1201C82.6905 59.8061 82.0235 60.6958 81.6041 61.7073C81.1847 62.7187 81.0264 63.8194 81.1439 64.9081L82.1879 74.5081C82.2966 75.48 82.1852 76.464 81.8618 77.387C81.5384 78.31 81.0114 79.1484 80.3198 79.84C79.6282 80.5315 78.7898 81.0585 77.8668 81.3819C76.9438 81.7053 75.9599 81.8168 74.9879 81.7081L65.3879 80.6641C64.2998 80.5458 63.1994 80.7037 62.1885 81.1232C61.1775 81.5426 60.2886 82.2102 59.6039 83.0641L53.5799 90.5601C52.9693 91.3202 52.1959 91.9336 51.3167 92.3551C50.4375 92.7766 49.4749 92.9954 48.4999 92.9954C47.5249 92.9954 46.5623 92.7766 45.6831 92.3551C44.8039 91.9336 44.0305 91.3202 43.4199 90.5601L37.3759 83.0401C36.6901 82.1864 35.8004 81.5191 34.7889 81.0997C33.7774 80.6803 32.6766 80.5222 31.5879 80.6401L21.9879 81.6841C21.0158 81.7936 20.0315 81.6826 19.1081 81.3595C18.1847 81.0364 17.346 80.5094 16.6543 79.8177C15.9625 79.1259 15.4355 78.2872 15.1124 77.3639C14.7893 76.4405 14.6784 75.4562 14.7879 74.4841L15.8319 64.8841C15.9497 63.7954 15.7917 62.6946 15.3722 61.6831C14.9528 60.6716 14.2855 59.7819 13.4319 59.0961L5.91189 53.0521C5.15176 52.4415 4.53834 51.6681 4.11685 50.7889C3.69537 49.9097 3.47656 48.9471 3.47656 47.9721C3.47656 46.9971 3.69537 46.0345 4.11685 45.1553C4.53834 44.2761 5.15176 43.5027 5.91189 42.8921L13.4319 36.8441C14.2858 36.1593 14.9533 35.2704 15.3728 34.2595C15.7923 33.2485 15.9502 32.1482 15.8319 31.0601L14.7879 21.4601C14.6792 20.4881 14.7906 19.5041 15.114 18.5811C15.4374 17.6581 15.9644 16.8197 16.656 16.1282C17.3476 15.4366 18.1859 14.9096 19.109 14.5862C20.032 14.2628 21.0159 14.1513 21.9879 14.2601L31.5879 15.3041C32.6765 15.4215 33.7772 15.2633 34.7887 14.8439C35.8001 14.4245 36.6898 13.7574 37.3759 12.9041L43.4199 5.42806Z" stroke="#42BDFF" stroke-width="6" stroke-linecap="round" stroke-linejoin="round"/>
<path d="M36.5 59.9961L60.5 35.9961" stroke="#42BDFF" stroke-width="6" stroke-linecap="round" stroke-linejoin="round"/>
<path d="M36.5 35.9961L60.5 59.9961" stroke="#42BDFF" stroke-width="6" stroke-linecap="round" stroke-linejoin="round"/>
</svg>
