<svg width="97" height="96" viewBox="0 0 97 96" fill="none" xmlns="http://www.w3.org/2000/svg">
<path d="M63.5 47.0407L54.22 37.7607C53.7361 37.1669 53.1261 36.6883 52.4342 36.3596C51.7424 36.0309 50.986 35.8604 50.22 35.8604C49.454 35.8604 48.6976 36.0309 48.0058 36.3596C47.3139 36.6883 46.7039 37.1669 46.22 37.7607C41.9 42.0807 51.78 58.6007 47.46 62.8807C46.9572 63.4444 46.3409 63.8954 45.6516 64.2043C44.9622 64.5131 44.2154 64.6728 43.46 64.6728C42.7046 64.6728 41.9578 64.5131 41.2684 64.2043C40.5791 63.8954 39.9628 63.4444 39.46 62.8807L30.5 53.6407" stroke="#42BDFF" stroke-width="6" stroke-linecap="round" stroke-linejoin="round"/>
<path d="M56.8984 40.4405L61.8584 35.4805" stroke="#42BDFF" stroke-width="6" stroke-linecap="round" stroke-linejoin="round"/>
<path d="M32.1406 65.2002L37.1006 60.2402" stroke="#42BDFF" stroke-width="6" stroke-linecap="round" stroke-linejoin="round"/>
<path d="M67.6992 21.8C67.6992 23.3277 68.3061 24.7928 69.3863 25.873C70.4665 26.9532 71.9316 27.56 73.4592 27.56C74.9869 27.56 76.4519 26.9532 77.5322 25.873C78.6124 24.7928 79.2192 23.3277 79.2192 21.8C79.2192 20.2724 78.6124 18.8073 77.5322 17.7271C76.4519 16.6469 74.9869 16.04 73.4592 16.04C71.9316 16.04 70.4665 16.6469 69.3863 17.7271C68.3061 18.8073 67.6992 20.2724 67.6992 21.8Z" stroke="#42BDFF" stroke-width="6" stroke-linecap="round" stroke-linejoin="round"/>
<path d="M87.2991 3.00013H49.8191C48.9725 3.00528 48.1356 3.18156 47.3589 3.51838C46.5821 3.85521 45.8815 4.34562 45.2991 4.96013L5.29908 47.6401C4.73 48.2406 4.28857 48.9502 4.00146 49.7261C3.71436 50.5019 3.58753 51.328 3.62866 52.1542C3.66979 52.9805 3.87801 53.7898 4.24074 54.5334C4.60347 55.2769 5.11318 55.9391 5.73908 56.4801L45.7391 91.4801C46.9503 92.5351 48.5238 93.0788 50.1279 92.9967C51.7321 92.9147 53.2418 92.2132 54.3391 91.0401L91.8191 51.0401C92.8984 49.9083 93.5001 48.4041 93.4991 46.8401V9.16013C93.4991 8.34781 93.3384 7.54351 93.0264 6.79352C92.7143 6.04354 92.257 5.36268 91.6807 4.79015C91.1045 4.21761 90.4207 3.76471 89.6687 3.4575C88.9167 3.15029 88.1114 2.99486 87.2991 3.00013Z" stroke="#42BDFF" stroke-width="6" stroke-linecap="round" stroke-linejoin="round"/>
</svg>
