<svg width="97" height="96" viewBox="0 0 97 96" fill="none" xmlns="http://www.w3.org/2000/svg">
<path d="M18.5 72H15.5C12.3174 72 9.26516 70.7356 7.01472 68.4852C4.76428 66.2348 3.5 63.1824 3.5 60V48C3.5 44.8176 4.76428 41.7652 7.01472 39.5147C9.26516 37.2643 12.3174 36 15.5 36H18.5C19.2956 36 20.0587 36.3161 20.6213 36.8787C21.1839 37.4413 21.5 38.2044 21.5 39V69C21.5 69.7956 21.1839 70.5588 20.6213 71.1212C20.0587 71.684 19.2956 72 18.5 72Z" stroke="#42BDFF" stroke-width="6" stroke-linecap="round" stroke-linejoin="round"/>
<path d="M81.5 72H78.5C77.7044 72 76.9412 71.684 76.3788 71.1212C75.816 70.5588 75.5 69.7956 75.5 69V39C75.5 38.2044 75.816 37.4413 76.3788 36.8787C76.9412 36.3161 77.7044 36 78.5 36H81.5C84.6824 36 87.7348 37.2643 89.9852 39.5147C92.2356 41.7652 93.5 44.8176 93.5 48V60C93.5 63.1824 92.2356 66.2348 89.9852 68.4852C87.7348 70.7356 84.6824 72 81.5 72Z" stroke="#42BDFF" stroke-width="6" stroke-linecap="round" stroke-linejoin="round"/>
<path d="M15.5 36C15.5 27.2478 18.9768 18.8542 25.1655 12.6655C31.3542 6.47676 39.7478 3 48.5 3C57.252 3 65.646 6.47676 71.8344 12.6655C78.0232 18.8542 81.5 27.2478 81.5 36" stroke="#42BDFF" stroke-width="6" stroke-linecap="round" stroke-linejoin="round"/>
<path d="M60.5 87H69.5C72.6824 87 75.7348 85.7356 77.9852 83.4852C80.2356 81.2348 81.5 78.1824 81.5 75V72" stroke="#42BDFF" stroke-width="6" stroke-linecap="round" stroke-linejoin="round"/>
<path d="M54.5 93H48.5C46.9088 93 45.3824 92.368 44.2572 91.2428C43.132 90.1176 42.5 88.5912 42.5 87C42.5 85.4088 43.132 83.8824 44.2572 82.7572C45.3824 81.632 46.9088 81 48.5 81H54.5C56.0912 81 57.6176 81.632 58.7428 82.7572C59.868 83.8824 60.5 85.4088 60.5 87C60.5 88.5912 59.868 90.1176 58.7428 91.2428C57.6176 92.368 56.0912 93 54.5 93Z" stroke="#42BDFF" stroke-width="6" stroke-linecap="round" stroke-linejoin="round"/>
<path d="M36.5 33.0006C36.5004 30.8008 37.1056 28.6433 38.2493 26.7641C39.393 24.8849 41.0312 23.3563 42.9852 22.3452C44.9388 21.3342 47.1332 20.8798 49.3276 21.0315C51.5224 21.1832 53.6332 21.9354 55.4292 23.2056C57.2252 24.4759 58.6376 26.2155 59.5116 28.2342C60.386 30.2529 60.6884 32.4731 60.386 34.6521C60.0836 36.8311 59.1884 38.8851 57.7976 40.5897C56.4068 42.2941 54.574 43.5833 52.5 44.3165C51.3296 44.7305 50.3164 45.4969 49.6 46.5105C48.8836 47.5245 48.4992 48.7353 48.5 49.9765V51.0005" stroke="#42BDFF" stroke-width="6" stroke-linecap="round" stroke-linejoin="round"/>
<path d="M48.5 66C47.6716 66 47 65.3284 47 64.5C47 63.6716 47.6716 63 48.5 63" stroke="#42BDFF" stroke-width="6"/>
<path d="M48.5 66C49.3284 66 50 65.3284 50 64.5C50 63.6716 49.3284 63 48.5 63" stroke="#42BDFF" stroke-width="6"/>
</svg>
