<svg width="18" height="18" viewBox="0 0 18 18" fill="none" xmlns="http://www.w3.org/2000/svg">
<path d="M8.96212 12.5467V8.46153C8.96212 8.30673 8.90066 8.15826 8.79119 8.04886C8.68172 7.9394 8.53332 7.87793 8.37852 7.87793H7.79492" stroke="#42BDFF" stroke-width="1.6" stroke-linecap="round" stroke-linejoin="round"/>
<path d="M8.66875 6.15294C8.50755 6.15294 8.37695 6.02229 8.37695 5.86114C8.37695 5.69998 8.50755 5.56934 8.66875 5.56934" stroke="#42BDFF" stroke-width="1.6" stroke-linecap="round" stroke-linejoin="round"/>
<path d="M8.66992 6.15294C8.83112 6.15294 8.96172 6.02229 8.96172 5.86114C8.96172 5.69998 8.83112 5.56934 8.66992 5.56934" stroke="#42BDFF" stroke-width="1.6" stroke-linecap="round" stroke-linejoin="round"/>
<path d="M8.99927 16.4858C13.1335 16.4858 16.4849 13.1344 16.4849 9.00024C16.4849 4.86606 13.1335 1.51465 8.99927 1.51465C4.86509 1.51465 1.51367 4.86606 1.51367 9.00024C1.51367 13.1344 4.86509 16.4858 8.99927 16.4858Z" stroke="#42BDFF" stroke-width="1.6" stroke-linecap="round" stroke-linejoin="round"/>
<path d="M7.79492 12.5469H10.2076" stroke="#42BDFF" stroke-width="1.6" stroke-miterlimit="10" stroke-linecap="round" stroke-linejoin="round"/>
</svg>
