<svg width="97" height="96" viewBox="0 0 97 96" fill="none" xmlns="http://www.w3.org/2000/svg">
<g clip-path="url(#clip0_112_102062)">
<path d="M56.125 64H40.125V58.8172C40.125 55.972 41.6362 53.3408 44.0942 51.9068L52.1558 47.204C54.6138 45.7704 56.125 43.1392 56.125 40.294V40C56.125 35.5817 52.5434 32 48.125 32C44.6418 32 41.2234 34.2262 40.125 37.3333" stroke="#42BDFF" stroke-width="6" stroke-linecap="round" stroke-linejoin="round"/>
<path d="M3.125 48C3.125 59.9347 7.86606 71.3807 16.3052 79.8198C24.7443 88.2589 36.1903 93 48.125 93C60.0597 93 71.5057 88.2589 79.9448 79.8198C88.3839 71.3807 93.125 59.9347 93.125 48C93.125 36.0653 88.3839 24.6193 79.9448 16.1802C71.5057 7.74106 60.0597 3 48.125 3C36.1903 3 24.7443 7.74106 16.3052 16.1802C7.86606 24.6193 3.125 36.0653 3.125 48Z" stroke="#42BDFF" stroke-width="6" stroke-linecap="round" stroke-linejoin="round"/>
</g>
<defs>
<clipPath id="clip0_112_102062">
<rect width="96" height="96" fill="white" transform="translate(0.125)"/>
</clipPath>
</defs>
</svg>
