<svg width="97" height="96" viewBox="0 0 97 96" fill="none" xmlns="http://www.w3.org/2000/svg">
<path d="M42.1793 45.6196V54.314C42.1793 62.9068 55.3449 63.8168 55.3449 54.314V37.2082C55.3449 31.9176 51.4869 26.1313 43.8925 27.1611C42.8549 27.3017 41.8641 27.6818 40.9985 28.2711C40.1328 28.8605 39.4161 29.643 38.9048 30.5569L25.3034 54.314C24.7097 55.3324 24.3968 56.4904 24.3966 57.6692V67.9156C24.4097 68.9724 24.1604 70.016 23.6712 70.9532L18.3213 81.8796C17.5322 83.4864 17.4085 85.34 17.9772 87.0376C18.5459 88.7352 19.7611 90.14 21.359 90.9472C22.2979 91.4312 23.3403 91.68 24.3966 91.6724C25.6598 91.676 26.8987 91.3252 27.9726 90.6604C29.0465 89.9952 29.9124 89.042 30.4719 87.9096L35.8671 77.1644C37.3976 74.0532 38.1299 70.6096 37.998 67.1448L44.1189 69.1848C44.9613 69.4656 45.7397 69.9104 46.4093 70.4944C47.0785 71.078 47.6253 71.7888 48.0177 72.5852L55.7253 87.9548C56.2849 89.0876 57.1505 90.0404 58.2245 90.7056C59.2985 91.3708 60.5373 91.7216 61.8005 91.718C62.8569 91.7256 63.8993 91.4764 64.8381 90.9924C66.4361 90.1852 67.6513 88.7804 68.2201 87.0828C68.7885 85.3852 68.6649 83.532 67.8757 81.9248L61.8005 69.7024" stroke="#42BDFF" stroke-width="6" stroke-linecap="round" stroke-linejoin="round"/>
<path d="M56.5566 15.6922C56.5566 18.7178 57.7586 21.6194 59.898 23.7589C62.0374 25.8983 64.939 27.1002 67.9646 27.1002C70.9902 27.1002 73.8919 25.8983 76.0313 23.7589C78.1707 21.6194 79.3726 18.7178 79.3726 15.6922C79.3726 12.6666 78.1707 9.76492 76.0313 7.62551C73.8919 5.48609 70.9902 4.28418 67.9646 4.28418C64.939 4.28418 62.0374 5.48609 59.898 7.62551C57.7586 9.76492 56.5566 12.6666 56.5566 15.6922Z" stroke="#42BDFF" stroke-width="6" stroke-linecap="round" stroke-linejoin="round"/>
</svg>
