<?xml version="1.0" encoding="utf-8"?>
<!-- Generator: Adobe Illustrator 24.3.0, SVG Export Plug-In . SVG Version: 6.00 Build 0)  -->
<svg version="1.1" id="Layer_1" xmlns="http://www.w3.org/2000/svg" xmlns:xlink="http://www.w3.org/1999/xlink" x="0px" y="0px"
	 viewBox="0 0 48.2 95.8" style="enable-background:new 0 0 48.2 95.8;" xml:space="preserve">
<g id="Layer_2_1_">
	<g id="Layer_1-2">
		<path d="M48.1,63.8L32.3,47.9l15.8-15.7V0.3L16.4,32L0.1,15.5v32.6l16,16.1l0,0v31.4L35.7,76l0,0L48.1,63.8z M42.9,12.7V30
			L28.7,44.2L23.5,39L20,35.6L42.9,12.7z M5.2,46.1V28l7.6,7.6l0,0l7.1,7.1l21,21.1l-8.7,8.7L16.2,57L5.2,46.1z M21.3,69.3l7.1,6.9
			l-7.1,7.1V69.3z"/>
	</g>
</g>
</svg>
