<?xml version="1.0" encoding="utf-8"?>
<!-- Generator: Adobe Illustrator 24.3.0, SVG Export Plug-In . SVG Version: 6.00 Build 0)  -->
<svg version="1.1" id="Layer_1" xmlns="http://www.w3.org/2000/svg" xmlns:xlink="http://www.w3.org/1999/xlink" x="0px" y="0px"
	 viewBox="0 0 15.7 15.7" style="enable-background:new 0 0 15.7 15.7;" xml:space="preserve">
<style type="text/css">
	.st0{fill:#FFFFFF;}
</style>
<g>
	<g>
		<path class="st0" d="M10.6,11.1c-3.3,0-6-2.7-6-6c0-2.1,1.1-4,2.8-5.1L6.3,0.2C2.6,0.9,0,4.2,0,8c0,2.1,0.9,4,2.3,5.5
			c1.5,1.4,3.4,2.2,5.5,2.2c0,0,0.1,0,0.1,0c1.9,0,3.6-0.7,5-1.9c1.4-1.2,2.3-2.8,2.6-4.6l0.1-0.8C14.6,10,12.7,11.1,10.6,11.1
			L10.6,11.1z"/>
	</g>
</g>
</svg>
